<?xml version="1.0" encoding="UTF-8" standalone="no" ?>
<!DOCTYPE svg PUBLIC "-//W3C//DTD SVG 1.1//EN" "http://www.w3.org/Graphics/SVG/1.1/DTD/svg11.dtd">
<svg xmlns="http://www.w3.org/2000/svg" xmlns:xlink="http://www.w3.org/1999/xlink" version="1.1" width="1080" height="1080" viewBox="0 0 1080 1080" xml:space="preserve">
<desc>Created with Fabric.js 5.2.4</desc>
<defs>
</defs>
<rect x="0" y="0" width="100%" height="100%" fill="transparent"></rect>
<g transform="matrix(1 0 0 1 540 540)" id="bf87d479-dd44-4d17-bdea-e2ca199cb917"  >
<rect style="stroke: none; stroke-width: 1; stroke-dasharray: none; stroke-linecap: butt; stroke-dashoffset: 0; stroke-linejoin: miter; stroke-miterlimit: 4; fill: rgb(255,255,255); fill-rule: nonzero; opacity: 1; visibility: hidden;" vector-effect="non-scaling-stroke"  x="-540" y="-540" rx="0" ry="0" width="1080" height="1080" />
</g>
<g transform="matrix(1 0 0 1 540 540)" id="f02b670a-dd47-4aff-aebb-c363ca2a3346"  >
</g>
<g transform="matrix(1.33 0 0 1.33 736.87 664.47)" clip-path="url(#CLIPPATH_39)"  >
<clipPath id="CLIPPATH_39" >
	<path transform="matrix(1 0 0 1 -0.32 -0.37) translate(-552.5, -498.25)" d="M 458 404 L 647 404 L 647 592.5 L 458 592.5 Z M 458 404" stroke-linecap="round" />
</clipPath>
<path style="stroke: none; stroke-width: 1; stroke-dasharray: none; stroke-linecap: butt; stroke-dashoffset: 0; stroke-linejoin: miter; stroke-miterlimit: 4; fill: rgb(0,0,0); fill-rule: evenodd; opacity: 1;" vector-effect="non-scaling-stroke"  transform=" translate(-552.82, -498.62)" d="M 552.824219 413.195312 C 505.730469 413.195312 467.40625 451.519531 467.40625 498.636719 C 467.40625 545.738281 505.71875 584.074219 552.824219 584.074219 C 599.910156 584.074219 638.234375 545.746094 638.234375 498.636719 C 638.234375 451.519531 599.910156 413.195312 552.824219 413.195312 Z M 552.824219 592.542969 C 501.050781 592.542969 458.925781 550.417969 458.925781 498.628906 C 458.925781 446.835938 501.050781 404.699219 552.824219 404.699219 C 604.601562 404.699219 646.714844 446.835938 646.714844 498.628906 C 646.714844 550.417969 604.601562 592.542969 552.824219 592.542969 Z M 552.824219 592.542969" stroke-linecap="round" />
</g>
<g transform="matrix(1.33 0 0 1.33 736.93 664.53)"  >
<path style="stroke: none; stroke-width: 1; stroke-dasharray: none; stroke-linecap: butt; stroke-dashoffset: 0; stroke-linejoin: miter; stroke-miterlimit: 4; fill: rgb(0,0,0); fill-rule: evenodd; opacity: 1;" vector-effect="non-scaling-stroke"  transform=" translate(-552.82, -498.63)" d="M 552.824219 430.460938 C 515.238281 430.460938 484.660156 461.039062 484.660156 498.636719 C 484.660156 536.226562 515.238281 566.816406 552.824219 566.816406 C 590.402344 566.816406 620.980469 536.226562 620.980469 498.636719 C 620.980469 461.027344 590.402344 430.460938 552.824219 430.460938 Z M 552.824219 575.289062 C 510.566406 575.289062 476.1875 540.898438 476.1875 498.628906 C 476.1875 456.355469 510.566406 421.964844 552.824219 421.964844 C 595.074219 421.964844 629.460938 456.355469 629.460938 498.628906 C 629.460938 540.910156 595.074219 575.289062 552.824219 575.289062 Z M 552.824219 575.289062" stroke-linecap="round" />
</g>
<g transform="matrix(1.33 0 0 1.33 471.51 544.43)"  >
<path style="stroke: none; stroke-width: 1; stroke-dasharray: none; stroke-linecap: butt; stroke-dashoffset: 0; stroke-linejoin: miter; stroke-miterlimit: 4; fill: rgb(0,0,0); fill-rule: evenodd; opacity: 1;" vector-effect="non-scaling-stroke"  transform=" translate(-354.04, -408.76)" d="M 469.902344 256.203125 L 238.164062 256.203125 C 235.8125 256.203125 233.917969 254.308594 233.917969 251.957031 C 233.917969 249.617188 235.804688 247.710938 238.164062 247.710938 L 469.902344 247.710938 C 472.246094 247.710938 474.136719 249.605469 474.136719 251.957031 C 474.148438 254.296875 472.246094 256.203125 469.902344 256.203125 Z M 540.679688 414.007812 C 538.339844 414.007812 536.433594 412.101562 536.433594 409.761719 L 536.433594 256.203125 L 509.386719 256.203125 C 507.046875 256.203125 505.140625 254.308594 505.140625 251.957031 C 505.140625 249.617188 507.035156 247.710938 509.386719 247.710938 L 540.679688 247.710938 C 543.019531 247.710938 544.925781 249.605469 544.925781 251.957031 L 544.925781 409.761719 C 544.914062 412.101562 543.019531 414.007812 540.679688 414.007812 Z M 493.160156 569.816406 C 495.5 569.816406 497.40625 567.917969 497.40625 565.566406 C 497.40625 563.226562 495.511719 561.320312 493.160156 561.320312 L 171.636719 561.320312 L 171.636719 256.203125 L 198.683594 256.203125 C 201.023438 256.203125 202.929688 254.308594 202.929688 251.957031 C 202.929688 249.617188 201.035156 247.710938 198.683594 247.710938 L 167.402344 247.710938 C 165.0625 247.710938 163.15625 249.605469 163.15625 251.957031 L 163.15625 565.566406 C 163.15625 567.910156 165.050781 569.816406 167.402344 569.816406 Z M 493.160156 569.816406" stroke-linecap="round" />
</g>
<g transform="matrix(1.33 0 0 1.33 291.25 335.77)" clip-path="url(#CLIPPATH_40)"  >
<clipPath id="CLIPPATH_40" >
	<path transform="matrix(1 0 0 1 0.06 0.29) translate(-218.5, -252.25)" d="M 194 217.5 L 243 217.5 L 243 287 L 194 287 Z M 194 217.5" stroke-linecap="round" />
</clipPath>
<path style="stroke: none; stroke-width: 1; stroke-dasharray: none; stroke-linecap: butt; stroke-dashoffset: 0; stroke-linejoin: miter; stroke-miterlimit: 4; fill: rgb(0,0,0); fill-rule: evenodd; opacity: 1;" vector-effect="non-scaling-stroke"  transform=" translate(-218.44, -251.96)" d="M 202.929688 277.886719 L 233.917969 277.886719 L 233.917969 226.027344 L 202.929688 226.027344 Z M 238.164062 286.378906 L 198.695312 286.378906 C 196.355469 286.378906 194.449219 284.484375 194.449219 282.132812 L 194.449219 221.78125 C 194.449219 219.441406 196.34375 217.535156 198.695312 217.535156 L 238.175781 217.535156 C 240.515625 217.535156 242.421875 219.429688 242.421875 221.78125 L 242.421875 282.132812 C 242.410156 284.472656 240.507812 286.378906 238.164062 286.378906 Z M 238.164062 286.378906" stroke-linecap="round" />
</g>
<g transform="matrix(1.33 0 0 1.33 652.88 335.77)" clip-path="url(#CLIPPATH_41)"  >
<clipPath id="CLIPPATH_41" >
	<path transform="matrix(1 0 0 1 -0.15 0.29) translate(-489.5, -252.25)" d="M 465 217.5 L 514 217.5 L 514 287 L 465 287 Z M 465 217.5" stroke-linecap="round" />
</clipPath>
<path style="stroke: none; stroke-width: 1; stroke-dasharray: none; stroke-linecap: butt; stroke-dashoffset: 0; stroke-linejoin: miter; stroke-miterlimit: 4; fill: rgb(0,0,0); fill-rule: evenodd; opacity: 1;" vector-effect="non-scaling-stroke"  transform=" translate(-489.65, -251.96)" d="M 474.148438 277.886719 L 505.140625 277.886719 L 505.140625 226.027344 L 474.148438 226.027344 Z M 509.386719 286.378906 L 469.914062 286.378906 C 467.574219 286.378906 465.667969 284.484375 465.667969 282.132812 L 465.667969 221.78125 C 465.667969 219.441406 467.5625 217.535156 469.914062 217.535156 L 509.398438 217.535156 C 511.738281 217.535156 513.632812 219.429688 513.632812 221.78125 L 513.632812 282.132812 C 513.621094 284.472656 511.726562 286.378906 509.386719 286.378906 Z M 509.386719 286.378906" stroke-linecap="round" />
</g>
<g transform="matrix(1.33 0 0 1.33 471.51 413.33)"  >
<path style="stroke: none; stroke-width: 1; stroke-dasharray: none; stroke-linecap: butt; stroke-dashoffset: 0; stroke-linejoin: miter; stroke-miterlimit: 4; fill: rgb(0,0,0); fill-rule: evenodd; opacity: 1;" vector-effect="non-scaling-stroke"  transform=" translate(-354.04, -310.05)" d="M 540.679688 314.292969 L 167.402344 314.292969 C 165.0625 314.292969 163.15625 312.398438 163.15625 310.046875 C 163.15625 307.707031 165.050781 305.800781 167.402344 305.800781 L 540.679688 305.800781 C 543.019531 305.800781 544.925781 307.695312 544.925781 310.046875 C 544.914062 312.398438 543.019531 314.292969 540.679688 314.292969 Z M 540.679688 314.292969" stroke-linecap="round" />
</g>
<g transform="matrix(1.33 0 0 1.33 320.93 477.56)"  >
<path style="stroke: none; stroke-width: 1; stroke-dasharray: none; stroke-linecap: butt; stroke-dashoffset: 0; stroke-linejoin: miter; stroke-miterlimit: 4; fill: rgb(0,0,0); fill-rule: evenodd; opacity: 1;" vector-effect="non-scaling-stroke"  transform=" translate(-240.7, -358.28)" d="M 222.941406 376.039062 L 258.449219 376.039062 L 258.449219 340.523438 L 222.941406 340.523438 Z M 262.695312 384.523438 L 218.707031 384.523438 C 216.367188 384.523438 214.460938 382.617188 214.460938 380.273438 L 214.460938 336.277344 C 214.460938 333.933594 216.355469 332.027344 218.707031 332.027344 L 262.695312 332.027344 C 265.035156 332.027344 266.9375 333.933594 266.9375 336.277344 L 266.9375 380.273438 C 266.929688 382.628906 265.035156 384.523438 262.695312 384.523438 Z M 262.695312 384.523438" stroke-linecap="round" />
</g>
<g transform="matrix(1.33 0 0 1.33 320.93 583.61)"  >
<path style="stroke: none; stroke-width: 1; stroke-dasharray: none; stroke-linecap: butt; stroke-dashoffset: 0; stroke-linejoin: miter; stroke-miterlimit: 4; fill: rgb(0,0,0); fill-rule: evenodd; opacity: 1;" vector-effect="non-scaling-stroke"  transform=" translate(-240.7, -437.81)" d="M 222.941406 455.574219 L 258.449219 455.574219 L 258.449219 420.058594 L 222.941406 420.058594 Z M 262.695312 464.058594 L 218.707031 464.058594 C 216.367188 464.058594 214.460938 462.164062 214.460938 459.8125 L 214.460938 415.8125 C 214.460938 413.472656 216.355469 411.566406 218.707031 411.566406 L 262.695312 411.566406 C 265.035156 411.566406 266.9375 413.472656 266.9375 415.8125 L 266.9375 459.8125 C 266.929688 462.152344 265.035156 464.058594 262.695312 464.058594 Z M 262.695312 464.058594" stroke-linecap="round" />
</g>
<g transform="matrix(1.33 0 0 1.33 320.93 689.63)"  >
<path style="stroke: none; stroke-width: 1; stroke-dasharray: none; stroke-linecap: butt; stroke-dashoffset: 0; stroke-linejoin: miter; stroke-miterlimit: 4; fill: rgb(0,0,0); fill-rule: evenodd; opacity: 1;" vector-effect="non-scaling-stroke"  transform=" translate(-240.7, -517.33)" d="M 222.941406 535.089844 L 258.449219 535.089844 L 258.449219 499.574219 L 222.941406 499.574219 Z M 262.695312 543.574219 L 218.707031 543.574219 C 216.367188 543.574219 214.460938 541.667969 214.460938 539.328125 L 214.460938 495.328125 C 214.460938 492.988281 216.355469 491.082031 218.707031 491.082031 L 262.695312 491.082031 C 265.035156 491.082031 266.9375 492.976562 266.9375 495.328125 L 266.9375 539.328125 C 266.929688 541.679688 265.035156 543.574219 262.695312 543.574219 Z M 262.695312 543.574219" stroke-linecap="round" />
</g>
<g transform="matrix(1.33 0 0 1.33 472.05 477.56)"  >
<path style="stroke: none; stroke-width: 1; stroke-dasharray: none; stroke-linecap: butt; stroke-dashoffset: 0; stroke-linejoin: miter; stroke-miterlimit: 4; fill: rgb(0,0,0); fill-rule: evenodd; opacity: 1;" vector-effect="non-scaling-stroke"  transform=" translate(-354.04, -358.28)" d="M 336.289062 376.039062 L 371.792969 376.039062 L 371.792969 340.523438 L 336.289062 340.523438 Z M 376.027344 384.523438 L 332.042969 384.523438 C 329.703125 384.523438 327.796875 382.617188 327.796875 380.273438 L 327.796875 336.277344 C 327.796875 333.933594 329.691406 332.027344 332.042969 332.027344 L 376.027344 332.027344 C 378.367188 332.027344 380.273438 333.933594 380.273438 336.277344 L 380.273438 380.273438 C 380.273438 382.628906 378.367188 384.523438 376.027344 384.523438 Z M 376.027344 384.523438" stroke-linecap="round" />
</g>
<g transform="matrix(1.33 0 0 1.33 472.05 583.61)"  >
<path style="stroke: none; stroke-width: 1; stroke-dasharray: none; stroke-linecap: butt; stroke-dashoffset: 0; stroke-linejoin: miter; stroke-miterlimit: 4; fill: rgb(0,0,0); fill-rule: evenodd; opacity: 1;" vector-effect="non-scaling-stroke"  transform=" translate(-354.04, -437.81)" d="M 336.289062 455.574219 L 371.792969 455.574219 L 371.792969 420.058594 L 336.289062 420.058594 Z M 376.027344 464.058594 L 332.042969 464.058594 C 329.703125 464.058594 327.796875 462.164062 327.796875 459.8125 L 327.796875 415.8125 C 327.796875 413.472656 329.691406 411.566406 332.042969 411.566406 L 376.027344 411.566406 C 378.367188 411.566406 380.273438 413.472656 380.273438 415.8125 L 380.273438 459.8125 C 380.273438 462.152344 378.367188 464.058594 376.027344 464.058594 Z M 376.027344 464.058594" stroke-linecap="round" />
</g>
<g transform="matrix(1.33 0 0 1.33 472.05 689.63)"  >
<path style="stroke: none; stroke-width: 1; stroke-dasharray: none; stroke-linecap: butt; stroke-dashoffset: 0; stroke-linejoin: miter; stroke-miterlimit: 4; fill: rgb(0,0,0); fill-rule: evenodd; opacity: 1;" vector-effect="non-scaling-stroke"  transform=" translate(-354.04, -517.33)" d="M 336.289062 535.089844 L 371.792969 535.089844 L 371.792969 499.574219 L 336.289062 499.574219 Z M 376.027344 543.574219 L 332.042969 543.574219 C 329.703125 543.574219 327.796875 541.667969 327.796875 539.328125 L 327.796875 495.328125 C 327.796875 492.988281 329.691406 491.082031 332.042969 491.082031 L 376.027344 491.082031 C 378.367188 491.082031 380.273438 492.976562 380.273438 495.328125 L 380.273438 539.328125 C 380.273438 541.679688 378.367188 543.574219 376.027344 543.574219 Z M 376.027344 543.574219" stroke-linecap="round" />
</g>
<g transform="matrix(1.33 0 0 1.33 623.17 477.56)"  >
<path style="stroke: none; stroke-width: 1; stroke-dasharray: none; stroke-linecap: butt; stroke-dashoffset: 0; stroke-linejoin: miter; stroke-miterlimit: 4; fill: rgb(0,0,0); fill-rule: evenodd; opacity: 1;" vector-effect="non-scaling-stroke"  transform=" translate(-467.38, -358.28)" d="M 449.621094 376.039062 L 485.125 376.039062 L 485.125 340.523438 L 449.621094 340.523438 Z M 489.371094 384.523438 L 445.386719 384.523438 C 443.046875 384.523438 441.140625 382.617188 441.140625 380.273438 L 441.140625 336.277344 C 441.140625 333.933594 443.035156 332.027344 445.386719 332.027344 L 489.371094 332.027344 C 491.710938 332.027344 493.617188 333.933594 493.617188 336.277344 L 493.617188 380.273438 C 493.605469 382.628906 491.710938 384.523438 489.371094 384.523438 Z M 489.371094 384.523438" stroke-linecap="round" />
</g>
<g transform="matrix(1.33 0 0 1.33 623.17 583.61)"  >
<path style="stroke: none; stroke-width: 1; stroke-dasharray: none; stroke-linecap: butt; stroke-dashoffset: 0; stroke-linejoin: miter; stroke-miterlimit: 4; fill: rgb(0,0,0); fill-rule: evenodd; opacity: 1;" vector-effect="non-scaling-stroke"  transform=" translate(-467.38, -437.81)" d="M 471.988281 464.058594 L 445.386719 464.058594 C 443.046875 464.058594 441.140625 462.164062 441.140625 459.8125 L 441.140625 415.8125 C 441.140625 413.472656 443.035156 411.566406 445.386719 411.566406 L 489.371094 411.566406 C 491.710938 411.566406 493.617188 413.472656 493.617188 415.8125 L 493.617188 435.277344 C 493.617188 437.617188 491.710938 439.523438 489.371094 439.523438 C 487.019531 439.523438 485.125 437.628906 485.125 435.277344 L 485.125 420.050781 L 449.621094 420.050781 L 449.621094 455.566406 L 471.976562 455.566406 C 474.316406 455.566406 476.222656 457.460938 476.222656 459.8125 C 476.222656 462.152344 474.328125 464.058594 471.988281 464.058594 Z M 471.988281 464.058594" stroke-linecap="round" />
</g>
<g transform="matrix(1.33 0 0 1.33 471.52 374.54)"  >
<path style="stroke: none; stroke-width: 1; stroke-dasharray: none; stroke-linecap: butt; stroke-dashoffset: 0; stroke-linejoin: miter; stroke-miterlimit: 4; fill: rgb(250,188,4); fill-rule: evenodd; opacity: 1;" vector-effect="non-scaling-stroke"  transform=" translate(-354.04, -281.01)" d="M 171.636719 305.808594 L 536.433594 305.808594 L 536.433594 256.203125 L 513.621094 256.203125 L 513.621094 282.132812 C 513.621094 284.472656 511.714844 286.378906 509.375 286.378906 L 469.902344 286.378906 C 467.5625 286.378906 465.65625 284.484375 465.65625 282.132812 L 465.65625 256.203125 L 242.410156 256.203125 L 242.410156 282.132812 C 242.410156 284.472656 240.507812 286.378906 238.164062 286.378906 L 198.695312 286.378906 C 196.355469 286.378906 194.449219 284.484375 194.449219 282.132812 L 194.449219 256.203125 L 171.636719 256.203125 Z M 171.636719 305.808594" stroke-linecap="round" />
</g>
<g transform="matrix(1.33 0 0 1.33 291.28 335.81)"  >
<path style="stroke: none; stroke-width: 1; stroke-dasharray: none; stroke-linecap: butt; stroke-dashoffset: 0; stroke-linejoin: miter; stroke-miterlimit: 4; fill: rgb(233,67,53); fill-rule: evenodd; opacity: 1;" vector-effect="non-scaling-stroke"  transform=" translate(-218.43, -251.96)" d="M 202.929688 226.027344 L 233.929688 226.027344 L 233.929688 277.886719 L 202.929688 277.886719 Z M 202.929688 226.027344" stroke-linecap="round" />
</g>
<g transform="matrix(1.33 0 0 1.33 652.89 335.81)"  >
<path style="stroke: none; stroke-width: 1; stroke-dasharray: none; stroke-linecap: butt; stroke-dashoffset: 0; stroke-linejoin: miter; stroke-miterlimit: 4; fill: rgb(233,67,53); fill-rule: evenodd; opacity: 1;" vector-effect="non-scaling-stroke"  transform=" translate(-489.64, -251.96)" d="M 474.148438 226.027344 L 474.148438 277.886719 L 505.140625 277.886719 L 505.140625 252 C 505.140625 251.980469 505.140625 251.96875 505.140625 251.945312 C 505.140625 251.921875 505.140625 251.914062 505.140625 251.890625 L 505.140625 226.027344 Z M 474.148438 226.027344" stroke-linecap="round" />
</g>
<g transform="matrix(1.33 0 0 1.33 471.52 583.28)"  >
<path style="stroke: none; stroke-width: 1; stroke-dasharray: none; stroke-linecap: butt; stroke-dashoffset: 0; stroke-linejoin: miter; stroke-miterlimit: 4; fill: rgb(233,67,53); fill-rule: evenodd; opacity: 1;" vector-effect="non-scaling-stroke"  transform=" translate(-354.04, -437.81)" d="M 493.605469 336.289062 L 493.605469 380.285156 C 493.605469 382.628906 491.703125 384.535156 489.359375 384.535156 L 445.375 384.535156 C 443.035156 384.535156 441.128906 382.628906 441.128906 380.285156 L 441.128906 336.289062 C 441.128906 333.945312 443.023438 332.039062 445.375 332.039062 L 489.359375 332.039062 C 491.710938 332.039062 493.605469 333.945312 493.605469 336.289062 Z M 380.273438 336.289062 L 380.273438 380.285156 C 380.273438 382.628906 378.378906 384.535156 376.027344 384.535156 L 332.042969 384.535156 C 329.703125 384.535156 327.796875 382.628906 327.796875 380.285156 L 327.796875 336.289062 C 327.796875 333.945312 329.691406 332.039062 332.042969 332.039062 L 376.027344 332.039062 C 378.367188 332.039062 380.273438 333.945312 380.273438 336.289062 Z M 262.695312 411.578125 C 265.035156 411.578125 266.9375 413.484375 266.9375 415.824219 L 266.9375 459.824219 C 266.9375 462.164062 265.046875 464.070312 262.695312 464.070312 L 218.707031 464.070312 C 216.367188 464.070312 214.460938 462.175781 214.460938 459.824219 L 214.460938 415.824219 C 214.460938 413.484375 216.355469 411.578125 218.707031 411.578125 Z M 171.636719 314.292969 L 171.636719 561.320312 L 482.964844 561.320312 C 468.019531 544.675781 458.925781 522.695312 458.925781 498.628906 C 458.925781 486.421875 461.265625 474.761719 465.511719 464.058594 L 445.375 464.058594 C 443.035156 464.058594 441.128906 462.164062 441.128906 459.8125 L 441.128906 415.8125 C 441.128906 413.472656 443.023438 411.566406 445.375 411.566406 L 489.359375 411.566406 C 491.703125 411.566406 493.605469 413.472656 493.605469 415.8125 L 493.605469 425.777344 C 505.742188 415.890625 520.398438 408.957031 536.433594 406.125 L 536.433594 314.292969 Z M 380.273438 495.339844 L 380.273438 539.335938 C 380.273438 541.679688 378.378906 543.585938 376.027344 543.585938 L 332.042969 543.585938 C 329.703125 543.585938 327.796875 541.679688 327.796875 539.335938 L 327.796875 495.339844 C 327.796875 492.996094 329.691406 491.089844 332.042969 491.089844 L 376.027344 491.089844 C 378.367188 491.089844 380.273438 492.996094 380.273438 495.339844 Z M 380.273438 415.8125 L 380.273438 459.8125 C 380.273438 462.152344 378.378906 464.058594 376.027344 464.058594 L 332.042969 464.058594 C 329.703125 464.058594 327.796875 462.164062 327.796875 459.8125 L 327.796875 415.8125 C 327.796875 413.472656 329.691406 411.566406 332.042969 411.566406 L 376.027344 411.566406 C 378.367188 411.578125 380.273438 413.472656 380.273438 415.8125 Z M 266.929688 495.339844 L 266.929688 539.335938 C 266.929688 541.679688 265.035156 543.585938 262.683594 543.585938 L 218.707031 543.585938 C 216.367188 543.585938 214.460938 541.679688 214.460938 539.335938 L 214.460938 495.339844 C 214.460938 492.996094 216.355469 491.089844 218.707031 491.089844 L 262.695312 491.089844 C 265.035156 491.089844 266.929688 492.996094 266.929688 495.339844 Z M 266.929688 336.289062 L 266.929688 380.285156 C 266.929688 382.628906 265.035156 384.535156 262.683594 384.535156 L 218.707031 384.535156 C 216.367188 384.535156 214.460938 382.628906 214.460938 380.285156 L 214.460938 336.289062 C 214.460938 333.945312 216.355469 332.039062 218.707031 332.039062 L 262.695312 332.039062 C 265.035156 332.039062 266.929688 333.945312 266.929688 336.289062 Z M 266.929688 336.289062" stroke-linecap="round" />
</g>
<g transform="matrix(1.33 0 0 1.33 623.18 583.65)"  >
<path style="stroke: none; stroke-width: 1; stroke-dasharray: none; stroke-linecap: butt; stroke-dashoffset: 0; stroke-linejoin: miter; stroke-miterlimit: 4; fill: rgb(250,188,4); fill-rule: evenodd; opacity: 1;" vector-effect="non-scaling-stroke"  transform=" translate(-467.37, -437.82)" d="M 449.621094 420.058594 L 449.621094 455.574219 L 469.378906 455.574219 C 473.558594 447.503906 478.875 440.113281 485.117188 433.617188 L 485.117188 420.070312 L 449.621094 420.070312 Z M 449.621094 420.058594" stroke-linecap="round" />
</g>
<g transform="matrix(1.33 0 0 1.33 623.19 477.6)"  >
<path style="stroke: none; stroke-width: 1; stroke-dasharray: none; stroke-linecap: butt; stroke-dashoffset: 0; stroke-linejoin: miter; stroke-miterlimit: 4; fill: rgb(250,188,4); fill-rule: evenodd; opacity: 1;" vector-effect="non-scaling-stroke"  transform=" translate(-467.37, -358.28)" d="M 449.621094 340.523438 L 485.125 340.523438 L 485.125 376.039062 L 449.621094 376.039062 Z M 449.621094 340.523438" stroke-linecap="round" />
</g>
<g transform="matrix(1.33 0 0 1.33 472.08 477.6)"  >
<path style="stroke: none; stroke-width: 1; stroke-dasharray: none; stroke-linecap: butt; stroke-dashoffset: 0; stroke-linejoin: miter; stroke-miterlimit: 4; fill: rgb(250,188,4); fill-rule: evenodd; opacity: 1;" vector-effect="non-scaling-stroke"  transform=" translate(-354.04, -358.28)" d="M 336.289062 340.523438 L 371.792969 340.523438 L 371.792969 376.039062 L 336.289062 376.039062 Z M 336.289062 340.523438" stroke-linecap="round" />
</g>
<g transform="matrix(1.33 0 0 1.33 472.08 583.65)"  >
<path style="stroke: none; stroke-width: 1; stroke-dasharray: none; stroke-linecap: butt; stroke-dashoffset: 0; stroke-linejoin: miter; stroke-miterlimit: 4; fill: rgb(250,188,4); fill-rule: evenodd; opacity: 1;" vector-effect="non-scaling-stroke"  transform=" translate(-354.04, -437.82)" d="M 336.289062 420.058594 L 371.792969 420.058594 L 371.792969 455.574219 L 336.289062 455.574219 Z M 336.289062 420.058594" stroke-linecap="round" />
</g>
<g transform="matrix(1.33 0 0 1.33 472.08 689.68)"  >
<path style="stroke: none; stroke-width: 1; stroke-dasharray: none; stroke-linecap: butt; stroke-dashoffset: 0; stroke-linejoin: miter; stroke-miterlimit: 4; fill: rgb(250,188,4); fill-rule: evenodd; opacity: 1;" vector-effect="non-scaling-stroke"  transform=" translate(-354.04, -517.34)" d="M 336.289062 499.585938 L 371.792969 499.585938 L 371.792969 535.101562 L 336.289062 535.101562 Z M 336.289062 499.585938" stroke-linecap="round" />
</g>
<g transform="matrix(1.33 0 0 1.33 320.95 689.68)"  >
<path style="stroke: none; stroke-width: 1; stroke-dasharray: none; stroke-linecap: butt; stroke-dashoffset: 0; stroke-linejoin: miter; stroke-miterlimit: 4; fill: rgb(250,188,4); fill-rule: evenodd; opacity: 1;" vector-effect="non-scaling-stroke"  transform=" translate(-240.7, -517.34)" d="M 222.941406 499.585938 L 258.449219 499.585938 L 258.449219 535.101562 L 222.941406 535.101562 Z M 222.941406 499.585938" stroke-linecap="round" />
</g>
<g transform="matrix(1.33 0 0 1.33 320.95 583.65)"  >
<path style="stroke: none; stroke-width: 1; stroke-dasharray: none; stroke-linecap: butt; stroke-dashoffset: 0; stroke-linejoin: miter; stroke-miterlimit: 4; fill: rgb(250,188,4); fill-rule: evenodd; opacity: 1;" vector-effect="non-scaling-stroke"  transform=" translate(-240.7, -437.82)" d="M 222.941406 420.058594 L 258.449219 420.058594 L 258.449219 455.574219 L 222.941406 455.574219 Z M 222.941406 420.058594" stroke-linecap="round" />
</g>
<g transform="matrix(1.33 0 0 1.33 320.95 477.6)"  >
<path style="stroke: none; stroke-width: 1; stroke-dasharray: none; stroke-linecap: butt; stroke-dashoffset: 0; stroke-linejoin: miter; stroke-miterlimit: 4; fill: rgb(250,188,4); fill-rule: evenodd; opacity: 1;" vector-effect="non-scaling-stroke"  transform=" translate(-240.7, -358.28)" d="M 222.941406 340.523438 L 258.449219 340.523438 L 258.449219 376.039062 L 222.941406 376.039062 Z M 222.941406 340.523438" stroke-linecap="round" />
</g>
<g transform="matrix(1.34 0 0 1.34 736 664.57)"  >
<path style="stroke: none; stroke-width: 12; stroke-dasharray: none; stroke-linecap: butt; stroke-dashoffset: 0; stroke-linejoin: miter; stroke-miterlimit: 4; fill: rgb(233,67,53); fill-rule: evenodd; opacity: 1;" vector-effect="non-scaling-stroke"  transform=" translate(-552.82, -498.64)" d="M 552.824219 430.460938 C 515.238281 430.460938 484.660156 461.039062 484.660156 498.636719 C 484.660156 536.226562 515.238281 566.816406 552.824219 566.816406 C 590.402344 566.816406 620.980469 536.226562 620.980469 498.636719 C 620.980469 461.027344 590.402344 430.460938 552.824219 430.460938 Z M 519.28125 495.574219 L 533.78125 510.085938 L 586.359375 457.480469 C 587.953125 455.886719 590.761719 455.886719 592.355469 457.480469 L 602.695312 467.828125 C 603.488281 468.617188 603.941406 469.699219 603.941406 470.835938 C 603.941406 471.960938 603.488281 473.03125 602.695312 473.835938 L 536.789062 539.773438 C 535.964844 540.597656 534.875 541.011719 533.78125 541.011719 C 532.699219 541.011719 531.617188 540.597656 530.785156 539.773438 L 502.933594 511.914062 C 501.273438 510.253906 501.273438 507.566406 502.933594 505.917969 L 513.277344 495.574219 C 514.871094 493.980469 517.6875 493.980469 519.28125 495.574219 Z M 519.28125 495.574219" stroke-linecap="round" />
</g>
<g transform="matrix(1.33 0 0 1.33 737.03 664.37)"  >
<path style="stroke: none; stroke-width: 1; stroke-dasharray: none; stroke-linecap: butt; stroke-dashoffset: 0; stroke-linejoin: miter; stroke-miterlimit: 4; fill: rgb(250,188,4); fill-rule: evenodd; opacity: 1;" vector-effect="non-scaling-stroke"  transform=" translate(-552.82, -498.63)" d="M 552.824219 413.195312 C 505.730469 413.195312 467.40625 451.519531 467.40625 498.636719 C 467.40625 545.738281 505.71875 584.074219 552.824219 584.074219 C 599.910156 584.074219 638.234375 545.746094 638.234375 498.636719 C 638.234375 451.519531 599.910156 413.195312 552.824219 413.195312 Z M 476.1875 498.628906 C 476.1875 456.355469 510.566406 421.964844 552.824219 421.964844 C 595.074219 421.964844 629.460938 456.355469 629.460938 498.628906 C 629.460938 540.898438 595.074219 575.289062 552.824219 575.289062 C 510.566406 575.289062 476.1875 540.910156 476.1875 498.628906 Z M 476.1875 498.628906" stroke-linecap="round" />
</g>
<g transform="matrix(0.97 0 0 0.97 1216.22 656.41)"  >
<path style="stroke: none; stroke-width: 3; stroke-dasharray: none; stroke-linecap: butt; stroke-dashoffset: 0; stroke-linejoin: miter; stroke-miterlimit: 4; fill: rgb(233,67,53); fill-rule: evenodd; opacity: 1;" vector-effect="non-scaling-stroke"  transform=" translate(-552.82, -498.64)" d="M 552.824219 430.460938 C 515.238281 430.460938 484.660156 461.039062 484.660156 498.636719 C 484.660156 536.226562 515.238281 566.816406 552.824219 566.816406 C 590.402344 566.816406 620.980469 536.226562 620.980469 498.636719 C 620.980469 461.027344 590.402344 430.460938 552.824219 430.460938 Z M 519.28125 495.574219 L 533.78125 510.085938 L 586.359375 457.480469 C 587.953125 455.886719 590.761719 455.886719 592.355469 457.480469 L 602.695312 467.828125 C 603.488281 468.617188 603.941406 469.699219 603.941406 470.835938 C 603.941406 471.960938 603.488281 473.03125 602.695312 473.835938 L 536.789062 539.773438 C 535.964844 540.597656 534.875 541.011719 533.78125 541.011719 C 532.699219 541.011719 531.617188 540.597656 530.785156 539.773438 L 502.933594 511.914062 C 501.273438 510.253906 501.273438 507.566406 502.933594 505.917969 L 513.277344 495.574219 C 514.871094 493.980469 517.6875 493.980469 519.28125 495.574219 Z M 519.28125 495.574219" stroke-linecap="round" />
</g>
<g transform="matrix(2.6 0 0 2.6 735.36 664.69)" id="980e6467-4a0f-4108-9d71-9e55bfe7c99b"  >
<circle style="stroke: rgb(0,0,0); stroke-width: 0; stroke-dasharray: none; stroke-linecap: butt; stroke-dashoffset: 0; stroke-linejoin: miter; stroke-miterlimit: 4; fill: rgb(233,67,53); fill-opacity: 0.96; fill-rule: nonzero; opacity: 1;" vector-effect="non-scaling-stroke"  cx="0" cy="0" r="35" />
</g>
<g transform="matrix(2.02 0 0 2.02 737.27 662.97)"  >
<path style="stroke: rgb(0,0,0); stroke-width: 0; stroke-dasharray: none; stroke-linecap: butt; stroke-dashoffset: 0; stroke-linejoin: miter; stroke-miterlimit: 4; fill: rgb(250,188,4); fill-rule: nonzero; opacity: 1;" vector-effect="non-scaling-stroke"  transform=" translate(-50, -50)" d="M 16.28 19.945 L 19.957 16.32 C 22.060000000000002 14.166 25.578000000000003 14.166 27.681 16.32 L 50.007000000000005 38.595 L 72.333 16.32 C 74.43599999999999 14.166 77.954 14.166 80.054 16.32 L 83.68 19.945 C 85.834 22.046 85.834 25.566000000000003 83.68 27.668 L 61.405 49.993 L 83.68 72.32 C 85.834 74.422 85.834 77.939 83.68 80.04299999999999 L 80.054 83.72099999999999 C 77.95400000000001 85.82 74.436 85.82 72.333 83.72099999999999 L 50.007 61.393 L 27.681 83.721 C 25.578 85.82000000000001 22.060000000000002 85.82000000000001 19.957 83.721 L 16.28 80.043 C 14.180000000000001 77.93900000000001 14.180000000000001 74.42200000000001 16.28 72.32000000000001 L 38.606 49.99300000000001 L 16.28 27.667 C 14.18 25.566 14.18 22.046 16.28 19.945 z" stroke-linecap="round" />
</g>
</svg>